HIERARCHY
ROOT Hips
{
	OFFSET 0.000000 100.481300 0.000000
	CHANNELS 6 Xposition Yposition Zposition Xrotation Yrotation Zrotation
	JOINT Spine
	{
		OFFSET -0.279200 12.230698 -2.892100
		CHANNELS 3 Xrotation Yrotation Zrotation
		JOINT Spine1
		{
			OFFSET -0.325700 14.269203 -3.374200
			CHANNELS 3 Xrotation Yrotation Zrotation
			JOINT Spine2
			{
				OFFSET -0.372300 16.307602 -0.352600
				CHANNELS 3 Xrotation Yrotation Zrotation
				JOINT Neck
				{
					OFFSET -0.418800 17.814194 8.416900
					CHANNELS 3 Xrotation Yrotation Zrotation
					JOINT Head
					{
						OFFSET 0.000000 7.031097 3.806800
						CHANNELS 3 Xrotation Yrotation Zrotation
						JOINT HeadTop_End
						{
							OFFSET 0.000000 24.646606 12.978600
							CHANNELS 3 Xrotation Yrotation Zrotation
							End Site
							{
								OFFSET 0.000000 27.854965 0.000000
							}
						}
					}
				}
				JOINT LeftShoulder
				{
					OFFSET 16.952999 14.495407 -7.737500
					CHANNELS 3 Xrotation Yrotation Zrotation
					JOINT LeftArm
					{
						OFFSET 9.308998 -2.777710 0.208600
						CHANNELS 3 Xrotation Yrotation Zrotation
						JOINT LeftForeArm
						{
							OFFSET 29.972298 0.000000 0.000000
							CHANNELS 3 Xrotation Yrotation Zrotation
							JOINT LeftHand
							{
								OFFSET 26.026505 0.000000 0.000000
								CHANNELS 3 Xrotation Yrotation Zrotation
								JOINT LeftHandThumb1
								{
									OFFSET 12.240501 -7.147949 9.207150
									CHANNELS 3 Xrotation Yrotation Zrotation
									JOINT LeftHandThumb2
									{
										OFFSET 4.138618 -2.389435 2.389433
										CHANNELS 3 Xrotation Yrotation Zrotation
										JOINT LeftHandThumb3
										{
											OFFSET 2.726913 -1.574387 1.574386
											CHANNELS 3 Xrotation Yrotation Zrotation
											JOINT LeftHandThumb4
											{
												OFFSET 3.941010 -2.275345 2.275342
												CHANNELS 3 Xrotation Yrotation Zrotation
												End Site
												{
													OFFSET -0.005798 5.087799 0.009903
												}
											}
										}
									}
								}
								JOINT LeftHandIndex1
								{
									OFFSET 24.424698 -1.985611 5.953459
									CHANNELS 3 Xrotation Yrotation Zrotation
									JOINT LeftHandIndex2
									{
										OFFSET 6.426697 0.000000 0.000000
										CHANNELS 3 Xrotation Yrotation Zrotation
										JOINT LeftHandIndex3
										{
											OFFSET 5.337898 0.000000 0.000000
											CHANNELS 3 Xrotation Yrotation Zrotation
											JOINT LeftHandIndex4
											{
												OFFSET 4.409401 0.000000 0.000000
												CHANNELS 3 Xrotation Yrotation Zrotation
												End Site
												{
													OFFSET 0.000000 4.409363 0.014373
												}
											}
										}
									}
								}
								JOINT LeftHandMiddle1
								{
									OFFSET 23.810104 0.000000 0.000000
									CHANNELS 3 Xrotation Yrotation Zrotation
									JOINT LeftHandMiddle2
									{
										OFFSET 7.176498 0.000000 0.000000
										CHANNELS 3 Xrotation Yrotation Zrotation
										JOINT LeftHandMiddle3
										{
											OFFSET 6.774902 0.000000 0.000000
											CHANNELS 3 Xrotation Yrotation Zrotation
											JOINT LeftHandMiddle4
											{
												OFFSET 5.403328 0.000000 0.000000
												CHANNELS 3 Xrotation Yrotation Zrotation
												End Site
												{
													OFFSET -0.027702 5.403244 0.017414
												}
											}
										}
									}
								}
								JOINT LeftHandRing1
								{
									OFFSET 22.908401 -0.839279 -6.020567
									CHANNELS 3 Xrotation Yrotation Zrotation
									JOINT LeftHandRing2
									{
										OFFSET 6.337502 0.000000 0.000000
										CHANNELS 3 Xrotation Yrotation Zrotation
										JOINT LeftHandRing3
										{
											OFFSET 5.779297 0.000000 0.000000
											CHANNELS 3 Xrotation Yrotation Zrotation
											JOINT LeftHandRing4
											{
												OFFSET 4.965698 0.000000 0.000000
												CHANNELS 3 Xrotation Yrotation Zrotation
												End Site
												{
													OFFSET 0.000000 4.965668 0.016186
												}
											}
										}
									}
								}
								JOINT LeftHandPinky1
								{
									OFFSET 20.037003 -1.530319 -10.950146
									CHANNELS 3 Xrotation Yrotation Zrotation
									JOINT LeftHandPinky2
									{
										OFFSET 5.254700 0.000000 0.000000
										CHANNELS 3 Xrotation Yrotation Zrotation
										JOINT LeftHandPinky3
										{
											OFFSET 4.810204 0.000000 0.000000
											CHANNELS 3 Xrotation Yrotation Zrotation
											JOINT LeftHandPinky4
											{
												OFFSET 3.647202 0.000000 0.000000
												CHANNELS 3 Xrotation Yrotation Zrotation
												End Site
												{
													OFFSET 0.000000 3.647186 0.011889
												}
											}
										}
									}
								}
							}
						}
					}
				}
				JOINT RightShoulder
				{
					OFFSET -15.141001 14.495407 -7.737500
					CHANNELS 3 Xrotation Yrotation Zrotation
					JOINT RightArm
					{
						OFFSET -9.308998 -2.777710 0.208500
						CHANNELS 3 Xrotation Yrotation Zrotation
						JOINT RightForeArm
						{
							OFFSET -29.972300 0.000000 0.000000
							CHANNELS 3 Xrotation Yrotation Zrotation
							JOINT RightHand
							{
								OFFSET -26.026505 0.000000 0.000000
								CHANNELS 3 Xrotation Yrotation Zrotation
								JOINT RightHandThumb1
								{
									OFFSET -12.240601 -7.148026 9.207092
									CHANNELS 3 Xrotation Yrotation Zrotation
									JOINT RightHandThumb2
									{
										OFFSET -4.138618 -2.389435 2.389433
										CHANNELS 3 Xrotation Yrotation Zrotation
										JOINT RightHandThumb3
										{
											OFFSET -2.726974 -1.574417 1.574421
											CHANNELS 3 Xrotation Yrotation Zrotation
											JOINT RightHandThumb4
											{
												OFFSET -3.941010 -2.275345 2.275343
												CHANNELS 3 Xrotation Yrotation Zrotation
												End Site
												{
													OFFSET 0.005814 5.087799 0.009927
												}
											}
										}
									}
								}
								JOINT RightHandIndex1
								{
									OFFSET -24.424698 -1.985657 5.953444
									CHANNELS 3 Xrotation Yrotation Zrotation
									JOINT RightHandIndex2
									{
										OFFSET -6.426697 0.000000 0.000000
										CHANNELS 3 Xrotation Yrotation Zrotation
										JOINT RightHandIndex3
										{
											OFFSET -5.337898 0.000000 0.000000
											CHANNELS 3 Xrotation Yrotation Zrotation
											JOINT RightHandIndex4
											{
												OFFSET -4.409401 0.000000 0.000000
												CHANNELS 3 Xrotation Yrotation Zrotation
												End Site
												{
													OFFSET 0.000000 4.409363 0.014408
												}
											}
										}
									}
								}
								JOINT RightHandMiddle1
								{
									OFFSET -23.810097 0.000000 0.000000
									CHANNELS 3 Xrotation Yrotation Zrotation
									JOINT RightHandMiddle2
									{
										OFFSET -7.176498 0.000000 0.000000
										CHANNELS 3 Xrotation Yrotation Zrotation
										JOINT RightHandMiddle3
										{
											OFFSET -6.774902 0.000000 0.000000
											CHANNELS 3 Xrotation Yrotation Zrotation
											JOINT RightHandMiddle4
											{
												OFFSET -5.403328 0.000000 0.000000
												CHANNELS 3 Xrotation Yrotation Zrotation
												End Site
												{
													OFFSET 0.027702 5.403244 0.017457
												}
											}
										}
									}
								}
								JOINT RightHandRing1
								{
									OFFSET -22.908302 -0.839325 -6.020576
									CHANNELS 3 Xrotation Yrotation Zrotation
									JOINT RightHandRing2
									{
										OFFSET -6.337502 0.000000 0.000000
										CHANNELS 3 Xrotation Yrotation Zrotation
										JOINT RightHandRing3
										{
											OFFSET -5.779297 0.000000 0.000000
											CHANNELS 3 Xrotation Yrotation Zrotation
											JOINT RightHandRing4
											{
												OFFSET -4.965698 0.000000 0.000000
												CHANNELS 3 Xrotation Yrotation Zrotation
												End Site
												{
													OFFSET 0.000000 4.965668 0.016226
												}
											}
										}
									}
								}
								JOINT RightHandPinky1
								{
									OFFSET -20.037003 -1.530334 -10.950259
									CHANNELS 3 Xrotation Yrotation Zrotation
									JOINT RightHandPinky2
									{
										OFFSET -5.254700 0.000000 0.000000
										CHANNELS 3 Xrotation Yrotation Zrotation
										JOINT RightHandPinky3
										{
											OFFSET -4.810204 0.000000 0.000000
											CHANNELS 3 Xrotation Yrotation Zrotation
											JOINT RightHandPinky4
											{
												OFFSET -3.647202 0.000000 0.000000
												CHANNELS 3 Xrotation Yrotation Zrotation
												End Site
												{
													OFFSET 0.000000 3.647186 0.011917
												}
											}
										}
									}
								}
							}
						}
					}
				}
			}
		}
	}
	JOINT LeftUpLeg
	{
		OFFSET 15.427100 -6.655098 0.678600
		CHANNELS 3 Xrotation Yrotation Zrotation
		JOINT LeftLeg
		{
			OFFSET 4.081073 -39.591068 13.024000
			CHANNELS 3 Xrotation Yrotation Zrotation
			JOINT LeftFoot
			{
				OFFSET -4.081074 -37.707932 -15.979700
				CHANNELS 3 Xrotation Yrotation Zrotation
				JOINT LeftToeBase
				{
					OFFSET 5.346399 -15.068900 20.645000
					CHANNELS 3 Xrotation Yrotation Zrotation
					JOINT LeftToe_End
					{
						OFFSET 2.754700 0.931300 11.300900
						CHANNELS 3 Xrotation Yrotation Zrotation
						End Site
						{
							OFFSET 0.000000 11.669021 0.000000
						}
					}
				}
			}
		}
	}
	JOINT RightUpLeg
	{
		OFFSET -15.569500 -6.655098 0.678600
		CHANNELS 3 Xrotation Yrotation Zrotation
		JOINT RightLeg
		{
			OFFSET -4.081825 -39.591045 13.023800
			CHANNELS 3 Xrotation Yrotation Zrotation
			JOINT RightFoot
			{
				OFFSET 4.081824 -37.707954 -15.979600
				CHANNELS 3 Xrotation Yrotation Zrotation
				JOINT RightToeBase
				{
					OFFSET -5.346400 -15.068900 20.645000
					CHANNELS 3 Xrotation Yrotation Zrotation
					JOINT RightToe_End
					{
						OFFSET -2.754700 0.931300 11.300900
						CHANNELS 3 Xrotation Yrotation Zrotation
						End Site
						{
							OFFSET 0.000000 11.669021 0.000000
						}
					}
				}
			}
		}
	}
}
MOTION
Frames: 4
Frame Time: 0.033333
10.114925 91.432030 96.789162 1.224737 -5.348974 3.420820 0.989680 -7.022546 2.037844 -0.379646 -5.250631 1.569085 -0.533801 -5.151888 1.810347 -4.845634 3.523101 -0.022836 -9.312219 19.527717 -9.947694 -0.000001 0.000000 0.000000 0.678685 2.292400 -10.423214 -0.761450 -31.104214 -44.817785 0.000003 -46.071733 -0.000009 5.539874 4.273386 -18.945434 -2.166043 21.659626 8.959843 5.142514 23.266665 1.828526 0.105685 9.215967 3.273022 0.000000 0.000004 -0.000001 0.329448 2.108305 -17.761053 0.514845 2.616975 -22.255739 0.129849 1.333551 -11.121988 0.000001 -0.000001 0.000000 0.328866 2.106465 -17.745043 0.515572 2.618774 -22.271753 0.129847 1.333551 -11.122002 -0.000000 0.000000 -0.000000 0.329448 2.108305 -17.761053 0.514845 2.616974 -22.255739 0.129855 1.333548 -11.121993 -0.000001 -0.000000 -0.000001 1.554715 5.974060 -17.337013 0.519703 -1.441788 -22.729259 0.129843 1.333535 -11.122006 0.000000 -0.000002 -0.000001 2.003099 6.744631 11.515931 1.221280 6.028814 57.872609 -0.000004 19.884463 -0.000001 22.348977 -14.378004 20.757022 -2.399193 -19.981575 -9.251616 5.563984 -19.068012 -0.924578 -0.794371 -5.065666 -2.648884 -0.000002 0.000000 0.000002 0.515277 -2.631365 22.155153 0.366036 -2.230360 18.637734 0.092077 -1.130097 9.315310 0.000000 0.000001 0.000004 0.515277 -2.631364 22.155153 0.366039 -2.230361 18.637735 0.092075 -1.130091 9.315317 0.000001 0.000002 -0.000002 0.515278 -2.631364 22.155148 0.366037 -2.230362 18.637740 0.092076 -1.130096 9.315314 -0.000001 0.000001 -0.000002 0.515277 -2.631365 22.155151 0.366038 -2.230364 18.637730 0.092076 -1.130093 9.315316 0.000000 -0.000000 0.000001 15.905759 16.235232 -8.443085 12.738071 1.512613 2.305557 -26.860270 1.113051 -2.543986 -1.292353 -0.000009 0.000000 -0.000000 -0.000000 0.000000 -38.846643 -3.954563 -4.916456 18.039260 -6.957895 1.219618 -13.556696 1.291538 -3.360894 0.000003 0.000005 0.000000 -0.000001 0.000000 -0.000000 
9.426067 91.139915 100.542847 1.544623 -5.491688 2.885600 0.765788 -7.029043 2.162171 -0.574705 -5.298315 1.618105 -0.730078 -5.190614 1.859507 -5.006891 3.526346 -0.116316 -9.141999 19.347460 -9.907524 -0.000001 -0.000000 0.000000 0.677635 2.376422 -10.475773 0.142718 -31.412730 -45.438697 -0.000013 -45.981394 -0.000009 6.554300 3.608818 -18.194316 -2.166047 21.659626 8.959851 5.142515 23.266667 1.828527 0.105690 9.215964 3.273013 0.000003 0.000001 -0.000001 0.329446 2.108303 -17.761048 0.514846 2.616976 -22.255736 0.129849 1.333552 -11.121986 0.000000 0.000004 0.000000 0.328865 2.106465 -17.745047 0.515571 2.618773 -22.271748 0.129847 1.333551 -11.122000 -0.000001 -0.000000 -0.000000 0.329446 2.108303 -17.761050 0.514846 2.616977 -22.255739 0.129855 1.333554 -11.121991 0.000000 0.000000 0.000001 1.554714 5.974058 -17.337011 0.519704 -1.441786 -22.729259 0.129843 1.333539 -11.122003 -0.000000 0.000001 0.000002 1.993839 6.644232 11.540885 1.176630 5.429544 58.566386 0.000005 17.188733 0.000002 22.188243 -13.169954 18.860280 -2.399194 -19.981573 -9.251615 5.563987 -19.068017 -0.924575 -0.794370 -5.065673 -2.648883 0.000001 -0.000002 -0.000000 0.515276 -2.631365 22.155149 0.366037 -2.230362 18.637732 0.092076 -1.130095 9.315313 -0.000000 0.000000 -0.000004 0.515276 -2.631365 22.155151 0.366036 -2.230362 18.637734 0.092074 -1.130094 9.315315 -0.000001 0.000003 -0.000002 0.515275 -2.631365 22.155149 0.366036 -2.230361 18.637735 0.092077 -1.130096 9.315313 -0.000002 0.000001 -0.000004 0.515276 -2.631365 22.155149 0.366036 -2.230363 18.637734 0.092077 -1.130095 9.315318 -0.000002 0.000001 0.000001 16.964001 17.065180 -7.493962 13.680798 -0.134339 2.757466 -24.562748 1.660594 -4.824514 -5.514323 -0.000002 -0.000001 0.000000 -0.000001 0.000000 -38.708123 -3.548048 -4.034668 18.986408 -6.290918 0.866813 -8.107588 0.870873 -4.211422 -0.000015 -0.000010 -0.000001 0.000000 -0.000001 0.000000 
8.471373 90.366272 104.641624 1.459572 -5.212149 2.502681 0.633932 -7.064115 2.194909 -0.662286 -5.340736 1.638837 -0.818927 -5.231554 1.873829 -5.048513 3.506862 -0.220064 -8.736807 19.007225 -9.709619 0.000000 0.000000 -0.000000 0.676117 2.438299 -10.500258 1.430529 -31.664286 -46.233055 0.000005 -45.081328 0.000005 8.133957 3.103770 -18.349966 -2.166043 21.659621 8.959842 5.142511 23.266665 1.828521 0.105689 9.215967 3.273018 0.000001 0.000002 0.000003 0.329448 2.108305 -17.761051 0.514845 2.616979 -22.255738 0.129849 1.333548 -11.121986 0.000000 0.000000 -0.000001 0.328865 2.106467 -17.745047 0.515572 2.618770 -22.271749 0.129846 1.333549 -11.122003 -0.000000 0.000002 0.000000 0.329448 2.108305 -17.761050 0.514845 2.616977 -22.255739 0.129856 1.333548 -11.121991 0.000001 0.000001 0.000001 1.554715 5.974060 -17.337011 0.519703 -1.441789 -22.729259 0.129843 1.333535 -11.122004 0.000000 0.000000 -0.000001 1.974589 6.515515 11.536807 1.214232 4.767464 59.390223 -0.000005 14.954641 0.000015 22.341212 -12.104932 17.141823 -2.399194 -19.981570 -9.251618 5.563985 -19.068017 -0.924575 -0.794373 -5.065668 -2.648882 -0.000001 0.000000 -0.000000 0.515277 -2.631364 22.155151 0.366037 -2.230361 18.637732 0.092077 -1.130097 9.315315 0.000001 0.000001 -0.000001 0.515277 -2.631363 22.155151 0.366037 -2.230362 18.637732 0.092076 -1.130092 9.315316 0.000000 -0.000001 -0.000003 0.515277 -2.631363 22.155149 0.366036 -2.230363 18.637737 0.092077 -1.130094 9.315318 0.000001 0.000000 0.000001 0.515277 -2.631364 22.155151 0.366039 -2.230364 18.637730 0.092077 -1.130095 9.315317 -0.000001 0.000001 0.000004 18.157954 17.992576 -7.245871 15.947010 -0.462245 4.333115 -23.174987 0.733703 -5.318296 -12.249682 0.000002 0.000002 -0.000000 -0.000001 -0.000000 -38.591645 -3.866719 -3.786379 21.135850 -5.019124 1.462202 -2.183280 0.801454 -4.358940 0.000006 0.000005 0.000001 -0.000000 -0.000001 0.000000 
7.390884 89.571266 108.559830 1.030233 -4.658947 1.906913 0.598820 -7.103407 2.279049 -0.666295 -5.388745 1.601294 -0.825494 -5.285233 1.827626 -5.021463 3.470810 -0.359912 -8.345507 18.501224 -9.260574 -0.000000 0.000000 -0.000000 0.675288 2.477419 -10.518114 3.039327 -31.777640 -46.938129 -0.000000 -43.629295 0.000005 10.348900 2.491879 -19.580342 -2.166044 21.659623 8.959843 5.142512 23.266669 1.828524 0.105690 9.215967 3.273020 0.000000 0.000001 0.000001 0.329447 2.108303 -17.761055 0.514846 2.616979 -22.255739 0.129849 1.333548 -11.121990 -0.000000 -0.000000 -0.000001 0.328864 2.106462 -17.745045 0.515572 2.618772 -22.271748 0.129846 1.333550 -11.122002 -0.000000 0.000001 0.000001 0.329447 2.108303 -17.761053 0.514846 2.616978 -22.255739 0.129855 1.333549 -11.121991 -0.000000 -0.000001 -0.000002 1.554713 5.974057 -17.337013 0.519704 -1.441787 -22.729259 0.129843 1.333534 -11.122003 -0.000001 -0.000000 0.000001 1.946465 6.372284 11.499241 1.406617 4.150376 60.290619 0.000002 13.649172 -0.000017 22.545894 -11.307515 15.824420 -2.399193 -19.981575 -9.251617 5.563984 -19.068013 -0.924576 -0.794372 -5.065669 -2.648879 -0.000000 0.000001 -0.000002 0.515277 -2.631365 22.155151 0.366039 -2.230361 18.637730 0.092077 -1.130098 9.315311 0.000001 0.000001 0.000002 0.515277 -2.631365 22.155151 0.366039 -2.230362 18.637732 0.092077 -1.130094 9.315324 0.000000 0.000000 -0.000001 0.515276 -2.631365 22.155151 0.366038 -2.230363 18.637740 0.092077 -1.130096 9.315314 -0.000000 0.000000 -0.000001 0.515277 -2.631365 22.155151 0.366039 -2.230365 18.637735 0.092077 -1.130095 9.315310 -0.000000 -0.000000 -0.000000 17.615201 18.605160 -5.782187 21.026080 -1.277297 5.783402 -20.991938 0.819420 -6.527847 -18.212155 -0.000004 0.000001 -0.000000 -0.000000 -0.000000 -38.224180 -5.180794 -4.017031 23.570180 -3.480525 3.014796 2.599486 0.723268 -5.289611 0.000004 0.000006 -0.000001 0.000001 -0.000001 0.000000 
